<svg width="167" height="20" viewBox="0 0 167 20" fill="none" xmlns="http://www.w3.org/2000/svg">
<g id="Social">
<g id="1">
<g id="logo-twitter 2">
<g id="Group">
<path id="Vector" d="M16.0236 5.35408C15.4227 5.61946 14.7884 5.78532 14.1208 5.88484C14.7884 5.48677 15.3225 4.8565 15.5562 4.09353C14.9219 4.45843 14.2209 4.72381 13.4531 4.88967C12.8522 4.2594 11.9843 3.86133 11.0496 3.86133C9.24693 3.86133 7.77811 5.32091 7.77811 7.11221C7.77811 7.37759 7.81149 7.6098 7.87826 7.842C5.17428 7.70931 2.73736 6.41559 1.10162 4.42526C0.834561 4.92284 0.667649 5.4536 0.667649 6.0507C0.667649 7.17856 1.23515 8.17373 2.13648 8.77083C1.60236 8.73765 1.10162 8.60497 0.634266 8.37276V8.40593C0.634266 9.9982 1.76927 11.3251 3.27148 11.6236C3.00442 11.69 2.70398 11.7232 2.40354 11.7232C2.20324 11.7232 1.96956 11.69 1.76927 11.6568C2.20324 12.9505 3.40501 13.9125 4.84045 13.9125C3.70545 14.775 2.30339 15.3058 0.767796 15.3058C0.500737 15.3058 0.233677 15.3058 0 15.2726C1.46883 16.2014 3.17133 16.7322 5.04075 16.7322C11.083 16.7322 14.3878 11.7563 14.3878 7.44393C14.3878 7.31125 14.3878 7.14538 14.3878 7.0127C15.0221 6.58146 15.5896 6.01753 16.0236 5.35408Z" fill="white"/>
</g>
</g>
</g>
<g id="2">
<g id="logo-fb-simple 2">
<g id="Group_2">
<path id="Vector_2" d="M53.0975 18.6362V10.7225H50.4175V7.63832H53.0975V5.36386C53.0975 2.72436 54.7198 1.28711 57.0893 1.28711C58.2244 1.28711 59.1999 1.37108 59.4842 1.40862V4.16704L57.8408 4.16778C56.5521 4.16778 56.3026 4.77629 56.3026 5.66923V7.63832H59.3759L58.9758 10.7225H56.3026V18.6362H53.0975Z" fill="white"/>
</g>
</g>
</g>
<g id="3">
<g id="logo-instagram 1">
<g id="Group_3">
<path id="Vector_3" d="M103.588 1.7394C106.182 1.7394 106.489 1.74906 107.514 1.79548C108.13 1.80297 108.74 1.91538 109.318 2.12783C109.737 2.28841 110.117 2.5344 110.435 2.84997C110.753 3.16554 111 3.54369 111.162 3.96008C111.376 4.53427 111.489 5.14063 111.496 5.75281C111.542 6.77098 111.553 7.07621 111.553 9.65359C111.553 12.231 111.543 12.5362 111.496 13.5544C111.489 14.1666 111.376 14.7729 111.162 15.3471C111 15.7635 110.753 16.1416 110.435 16.4572C110.117 16.7728 109.737 17.0188 109.318 17.1794C108.74 17.3918 108.13 17.5042 107.514 17.5117C106.49 17.5577 106.182 17.5678 103.588 17.5678C100.994 17.5678 100.687 17.5581 99.6628 17.5117C99.0468 17.5042 98.4366 17.3918 97.8587 17.1794C97.4397 17.0188 97.0592 16.7728 96.7416 16.4572C96.424 16.1416 96.1765 15.7635 96.0149 15.3471C95.8011 14.7729 95.688 14.1666 95.6804 13.5544C95.6342 12.5362 95.624 12.231 95.624 9.65359C95.624 7.07621 95.6337 6.77098 95.6804 5.75281C95.688 5.14063 95.8011 4.53427 96.0149 3.96008C96.1765 3.54369 96.424 3.16554 96.7416 2.84997C97.0592 2.5344 97.4397 2.28841 97.8587 2.12783C98.4366 1.91538 99.0468 1.80297 99.6628 1.79548C100.687 1.74952 100.995 1.7394 103.588 1.7394ZM103.588 0C100.952 0 100.619 0.0110321 99.5833 0.0579188C98.777 0.0738547 97.9793 0.225553 97.2241 0.50656C96.5762 0.749114 95.9894 1.12922 95.5046 1.62035C95.0099 2.10226 94.6271 2.68568 94.3829 3.32987C94.1001 4.08033 93.9474 4.87302 93.9314 5.6742C93.8851 6.70295 93.874 7.033 93.874 9.65313C93.874 12.2733 93.8851 12.6033 93.9323 13.633C93.9483 14.4342 94.101 15.2269 94.3838 15.9773C94.6278 16.6214 95.0103 17.2048 95.5046 17.6868C95.9897 18.1781 96.5768 18.5582 97.225 18.8006C97.9802 19.0816 98.7779 19.2333 99.5842 19.2493C100.62 19.2952 100.951 19.3072 103.589 19.3072C106.227 19.3072 106.558 19.2962 107.594 19.2493C108.401 19.2333 109.198 19.0816 109.953 18.8006C110.599 18.5521 111.184 18.1726 111.673 17.6863C112.163 17.2 112.544 16.6176 112.794 15.9764C113.077 15.2259 113.229 14.4333 113.245 13.6321C113.292 12.6033 113.303 12.2733 113.303 9.65313C113.303 7.033 113.292 6.70295 113.244 5.67329C113.228 4.8721 113.076 4.07941 112.793 3.32895C112.549 2.68485 112.166 2.10143 111.672 1.61943C111.187 1.12819 110.6 0.748076 109.952 0.50564C109.196 0.224633 108.399 0.0729354 107.592 0.0569995C106.557 0.0110322 106.225 0 103.588 0Z" fill="white"/>
<path id="Vector_4" d="M103.587 4.69531C102.6 4.69531 101.636 4.98604 100.815 5.53074C99.9948 6.07543 99.3554 6.84963 98.9779 7.75542C98.6003 8.66122 98.5015 9.65793 98.694 10.6195C98.8865 11.5811 99.3616 12.4644 100.059 13.1576C100.757 13.8509 101.646 14.323 102.613 14.5143C103.581 14.7056 104.584 14.6074 105.496 14.2322C106.407 13.857 107.186 13.2216 107.734 12.4065C108.283 11.5913 108.575 10.6329 108.575 9.65243C108.575 8.33772 108.05 7.07686 107.114 6.14722C106.179 5.21758 104.91 4.69531 103.587 4.69531ZM103.587 12.8701C102.946 12.8701 102.32 12.6814 101.788 12.3279C101.255 11.9743 100.84 11.4718 100.595 10.8838C100.35 10.2958 100.286 9.64886 100.411 9.02468C100.536 8.40051 100.844 7.82717 101.297 7.37716C101.75 6.92716 102.327 6.6207 102.955 6.49654C103.583 6.37239 104.234 6.43611 104.826 6.67965C105.418 6.92319 105.923 7.33561 106.279 7.86476C106.635 8.39391 106.825 9.01602 106.825 9.65243C106.825 10.5058 106.484 11.3243 105.876 11.9277C105.269 12.5311 104.445 12.8701 103.587 12.8701Z" fill="white"/>
<path id="Vector_5" d="M108.774 5.65855C109.417 5.65855 109.939 5.13993 109.939 4.50017C109.939 3.86042 109.417 3.3418 108.774 3.3418C108.13 3.3418 107.608 3.86042 107.608 4.50017C107.608 5.13993 108.13 5.65855 108.774 5.65855Z" fill="white"/>
</g>
</g>
</g>
<g id="4">
<g id="logo-github 1">
<g id="Group_4">
<path id="Vector_6" fill-rule="evenodd" clip-rule="evenodd" d="M156.985 0C151.836 0 147.693 4.11672 147.693 9.23377C147.693 13.312 150.364 16.7747 154.043 18.0058C154.507 18.0828 154.662 17.8135 154.662 17.5442C154.662 17.3133 154.662 16.7362 154.662 15.9667C152.068 16.5438 151.526 14.7356 151.526 14.7356C151.1 13.6583 150.481 13.389 150.481 13.389C149.629 12.8119 150.558 12.8119 150.558 12.8119C151.487 12.8888 151.991 13.7737 151.991 13.7737C152.804 15.1972 154.159 14.774 154.701 14.5432C154.778 13.9276 155.011 13.5429 155.282 13.312C153.23 13.0812 151.061 12.2732 151.061 8.7336C151.061 7.73328 151.41 6.88685 152.029 6.27127C151.952 6.04042 151.603 5.11704 152.107 3.80893C152.107 3.80893 152.881 3.57808 154.662 4.77078C155.398 4.57841 156.211 4.46299 156.985 4.46299C157.759 4.46299 158.573 4.57841 159.308 4.77078C161.089 3.57808 161.864 3.80893 161.864 3.80893C162.367 5.07857 162.057 6.00195 161.941 6.27127C162.522 6.92532 162.909 7.73328 162.909 8.7336C162.909 12.2732 160.741 13.0427 158.65 13.2735C158.998 13.5429 159.269 14.12 159.269 14.9664C159.269 16.1976 159.269 17.1979 159.269 17.5057C159.269 17.7365 159.424 18.0443 159.928 17.9674C163.606 16.7747 166.277 13.312 166.277 9.23377C166.277 4.11672 162.135 0 156.985 0Z" fill="white"/>
</g>
</g>
</g>
</g>
</svg>
